<?xml version="1.0" encoding="us-ascii" standalone="no"?><svg xmlns="http://www.w3.org/2000/svg" xmlns:xlink="http://www.w3.org/1999/xlink" contentStyleType="text/css" height="222px" preserveAspectRatio="none" style="width:198px;height:222px;background:#FFFFFF;" version="1.1" viewBox="0 0 198 222" width="198px" zoomAndPan="magnify"><defs/><g><!--entity User--><g id="elem_User"><ellipse cx="96" cy="14" fill="#F1F1F1" rx="8" ry="8" style="stroke:#181818;stroke-width:0.5;"/><path d="M96,22 L96,49 M83,30 L109,30 M96,49 L83,64 M96,49 L109,64 " fill="none" style="stroke:#181818;stroke-width:0.5;"/><text fill="#000000" font-family="sans-serif" font-size="14" lengthAdjust="spacing" textLength="31" x="80.5" y="78.4951">User</text></g><!--entity Organizer--><g id="elem_Organizer"><ellipse cx="41" cy="150" fill="#F1F1F1" rx="8" ry="8" style="stroke:#181818;stroke-width:0.5;"/><path d="M41,158 L41,185 M28,166 L54,166 M41,185 L28,200 M41,185 L54,200 " fill="none" style="stroke:#181818;stroke-width:0.5;"/><text fill="#000000" font-family="sans-serif" font-size="14" lengthAdjust="spacing" textLength="70" x="6" y="214.4951">Organizer</text></g><!--entity Participant--><g id="elem_Participant"><ellipse cx="151" cy="150" fill="#F1F1F1" rx="8" ry="8" style="stroke:#181818;stroke-width:0.5;"/><path d="M151,158 L151,185 M138,166 L164,166 M151,185 L138,200 M151,185 L164,200 " fill="none" style="stroke:#181818;stroke-width:0.5;"/><text fill="#000000" font-family="sans-serif" font-size="14" lengthAdjust="spacing" textLength="80" x="111" y="214.4951">Participant</text></g><!--reverse link User to Organizer--><g id="link_User_Organizer"><path d="M73.8448,98.478 C66.2164,117.064 63.8556,122.8155 56.2384,141.3737 " fill="none" id="User-backto-Organizer" style="stroke:#181818;stroke-width:1.0;"/><polygon fill="none" points="80.6794,81.826,68.2941,96.1998,79.3955,100.7562,80.6794,81.826" style="stroke:#181818;stroke-width:1.0;"/></g><!--reverse link User to Participant--><g id="link_User_Participant"><path d="M118.1553,98.4781 C125.7833,117.0641 128.144,122.8155 135.762,141.3737 " fill="none" id="User-backto-Participant" style="stroke:#181818;stroke-width:1.0;"/><polygon fill="none" points="111.321,81.826,112.6046,100.7562,123.706,96.2,111.321,81.826" style="stroke:#181818;stroke-width:1.0;"/></g><!--SRC=[imejJYsoKaWiLW0nkBX0f89DZQwkWdzHUc9UPXLG424Ma5XKafcSMP2OLm80]--></g></svg>