<?xml version="1.0" encoding="us-ascii" standalone="no"?><svg xmlns="http://www.w3.org/2000/svg" xmlns:xlink="http://www.w3.org/1999/xlink" contentStyleType="text/css" height="484px" preserveAspectRatio="none" style="width:641px;height:484px;background:#FFFFFF;" version="1.1" viewBox="0 0 641 484" width="641px" zoomAndPan="magnify"><defs/><g><!--cluster frontend--><g id="cluster_frontend"><rect fill="none" height="160" rx="2.5" ry="2.5" style="stroke:#181818;stroke-width:1.0;" width="263" x="372" y="7"/><text fill="#000000" font-family="sans-serif" font-size="14" font-weight="bold" lengthAdjust="spacing" textLength="71" x="468" y="21.9951">frontend</text></g><!--cluster backend--><g id="cluster_backend"><rect fill="none" height="254" rx="2.5" ry="2.5" style="stroke:#181818;stroke-width:1.0;" width="329" x="7" y="224"/><text fill="#000000" font-family="sans-serif" font-size="14" font-weight="bold" lengthAdjust="spacing" textLength="67" x="138" y="238.9951">backend</text></g><!--entity client--><g id="elem_client"><ellipse cx="577" cy="74.7969" fill="#F1F1F1" rx="8" ry="8" style="stroke:#181818;stroke-width:0.5;"/><path d="M577,82.7969 L577,109.7969 M564,90.7969 L590,90.7969 M577,109.7969 L564,124.7969 M577,109.7969 L590,124.7969 " fill="none" style="stroke:#181818;stroke-width:0.5;"/><text fill="#000000" font-family="sans-serif" font-size="14" lengthAdjust="spacing" textLength="41" x="556.5" y="139.292">client</text><text fill="#000000" font-family="sans-serif" font-size="14" font-style="italic" lengthAdjust="spacing" textLength="67" x="543.5" y="62.9951">&#171;mobile&#187;</text></g><!--entity web--><g id="elem_web"><rect fill="#F1F1F1" height="62.5938" rx="2.5" ry="2.5" style="stroke:#181818;stroke-width:0.5;" width="93" x="415.5" y="65"/><rect fill="#F1F1F1" height="10" style="stroke:#181818;stroke-width:0.5;" width="15" x="488.5" y="70"/><rect fill="#F1F1F1" height="2" style="stroke:#181818;stroke-width:0.5;" width="4" x="486.5" y="72"/><rect fill="#F1F1F1" height="2" style="stroke:#181818;stroke-width:0.5;" width="4" x="486.5" y="76"/><text fill="#000000" font-family="sans-serif" font-size="14" font-style="italic" lengthAdjust="spacing" textLength="47" x="433.5" y="97.9951">&#171;web&#187;</text><text fill="#000000" font-family="sans-serif" font-size="14" lengthAdjust="spacing" textLength="53" x="430.5" y="114.292">Reactjs</text></g><!--entity server--><g id="elem_server"><rect fill="#F1F1F1" height="62.5938" rx="2.5" ry="2.5" style="stroke:#181818;stroke-width:0.5;" width="103" x="202.5" y="399"/><rect fill="#F1F1F1" height="10" style="stroke:#181818;stroke-width:0.5;" width="15" x="285.5" y="404"/><rect fill="#F1F1F1" height="2" style="stroke:#181818;stroke-width:0.5;" width="4" x="283.5" y="406"/><rect fill="#F1F1F1" height="2" style="stroke:#181818;stroke-width:0.5;" width="4" x="283.5" y="410"/><text fill="#000000" font-family="sans-serif" font-size="14" font-style="italic" lengthAdjust="spacing" textLength="63" x="217.5" y="431.9951">&#171;server&#187;</text><text fill="#000000" font-family="sans-serif" font-size="14" lengthAdjust="spacing" textLength="43" x="227.5" y="448.292">nestjs</text></g><!--entity db--><g id="elem_db"><path d="M216,269.5 C216,259.5 268,259.5 268,259.5 C268,259.5 320,259.5 320,269.5 L320,311.0938 C320,321.0938 268,321.0938 268,321.0938 C268,321.0938 216,321.0938 216,311.0938 L216,269.5 " fill="#F1F1F1" style="stroke:#181818;stroke-width:0.5;"/><path d="M216,269.5 C216,279.5 268,279.5 268,279.5 C268,279.5 320,279.5 320,269.5 " fill="none" style="stroke:#181818;stroke-width:0.5;"/><text fill="#000000" font-family="sans-serif" font-size="14" font-style="italic" lengthAdjust="spacing" textLength="84" x="226" y="296.4951">&#171;database&#187;</text><text fill="#000000" font-family="sans-serif" font-size="14" lengthAdjust="spacing" textLength="77" x="229.5" y="312.792">postgresql</text></g><!--entity ca--><g id="elem_ca"><rect fill="#F1F1F1" height="62.5938" rx="2.5" ry="2.5" style="stroke:#181818;stroke-width:0.5;" width="158" x="23" y="259"/><rect fill="#F1F1F1" height="10" style="stroke:#181818;stroke-width:0.5;" width="15" x="161" y="264"/><rect fill="#F1F1F1" height="2" style="stroke:#181818;stroke-width:0.5;" width="4" x="159" y="266"/><rect fill="#F1F1F1" height="2" style="stroke:#181818;stroke-width:0.5;" width="4" x="159" y="270"/><text fill="#000000" font-family="sans-serif" font-size="14" font-style="italic" lengthAdjust="spacing" textLength="39" x="77.5" y="291.9951">&#171;PKI&#187;</text><text fill="#000000" font-family="sans-serif" font-size="14" lengthAdjust="spacing" textLength="118" x="38" y="308.292">cloudflare's cfssl</text></g><!--entity microcontroller--><g id="elem_microcontroller"><rect fill="#F1F1F1" height="52.5938" rx="2.5" ry="2.5" style="stroke:#181818;stroke-width:0.5;" width="139" x="496.5" y="264"/><text fill="#000000" font-family="sans-serif" font-size="14" font-style="italic" lengthAdjust="spacing" textLength="65" x="533.5" y="286.9951">&#171;device&#187;</text><text fill="#000000" font-family="sans-serif" font-size="14" lengthAdjust="spacing" textLength="119" x="506.5" y="303.292">ticket controller</text></g><!--link client to microcontroller--><g id="link_client_microcontroller"><path d="M574.393,143.001 C572.233,180.705 569.241,232.936 567.474,263.774 " fill="none" id="client-microcontroller" style="stroke:#181818;stroke-width:1.0;"/><text fill="#000000" font-family="sans-serif" font-size="13" lengthAdjust="spacing" textLength="41" x="573" y="204.0669">&#171;NFC&#187;</text></g><!--link ca to server--><g id="link_ca_server"><path d="M135.734,322.127 C160.923,344.996 195.194,376.111 220.361,398.9589 " fill="none" id="ca-server" style="stroke:#181818;stroke-width:1.0;"/><text fill="#000000" font-family="sans-serif" font-size="13" lengthAdjust="spacing" textLength="49" x="189" y="365.0669">&#171;REST&#187;</text></g><!--link db to server--><g id="link_db_server"><path d="M264.928,321.785 C262.61,344.635 259.442,375.86 257.114,398.8091 " fill="none" id="db-server" style="stroke:#181818;stroke-width:1.0;"/><text fill="#000000" font-family="sans-serif" font-size="13" lengthAdjust="spacing" textLength="77" x="263" y="365.0669">&#171;TypeORM&#187;</text></g><!--link microcontroller to server--><g id="link_microcontroller_server"><path d="M520.076,317.042 C490.737,332.904 451.642,353.205 416,369 C379.769,385.056 337.83,400.6396 305.703,411.9688 " fill="none" id="microcontroller-server" style="stroke:#181818;stroke-width:1.0;stroke-dasharray:1.0,3.0;"/><text fill="#000000" font-family="sans-serif" font-size="13" lengthAdjust="spacing" textLength="49" x="451" y="365.0669">&#171;REST&#187;</text></g><!--link frontend to server--><g id="link_frontend_server"><path d="M387.8816,167.9977 C388.0384,171.0626 388.1752,174.195 388.2882,177.388 C388.5143,183.774 388.6452,190.4024 388.6504,197.2189 C388.6918,251.7505 380.687,318.313 349,369 C338.738,385.415 322.206,398.1813 305.788,407.6668 " fill="none" id="frontend-server" style="stroke:#181818;stroke-width:1.0;"/><text fill="#000000" font-family="sans-serif" font-size="13" lengthAdjust="spacing" textLength="49" x="390" y="295.0669">&#171;REST&#187;</text></g><!--SRC=[RP5DJiGm38NtEOKr6rPp0JJg1e6443ygSm77SQj2cXGd34A8EJjEKmrGpSxo- -ptuWXJnj1xXavYo1mSV1a0f1m5o0ySCknsOxI3vwPHXU8unL3QcvOLUqaR1JxODWrW0YqKCj_6O3z3UQ1NpZeMiaJlMGhk-30Grubn88c_iZ6BwtQxbk1IHnzkhZI7aLDkYsgmnFuJBd1QiYMM0qirgxMI3ZDQJ0nJJBaNJc- -v5gw5NRs_qhoyTrr7eKl4b2NaY_hd-vkAqvOS2p1gysSjxr-ti-7StQbx3ydVcplLTHhhPzwF9vPSlgYSnO_]--></g></svg>