<?xml version="1.0" encoding="us-ascii" standalone="no"?><svg xmlns="http://www.w3.org/2000/svg" xmlns:xlink="http://www.w3.org/1999/xlink" contentStyleType="text/css" height="401px" preserveAspectRatio="none" style="width:913px;height:401px;background:#FFFFFF;" version="1.1" viewBox="0 0 913 401" width="913px" zoomAndPan="magnify"><defs/><g><text fill="#000000" font-family="sans-serif" font-size="14" font-weight="bold" lengthAdjust="spacing" textLength="300" x="305" y="27.9951">Event control authorization protocol</text><line style="stroke:#181818;stroke-width:0.5;stroke-dasharray:5.0,5.0;" x1="168" x2="168" y1="73.5938" y2="366.1875"/><line style="stroke:#181818;stroke-width:0.5;stroke-dasharray:5.0,5.0;" x1="482" x2="482" y1="73.5938" y2="366.1875"/><line style="stroke:#181818;stroke-width:0.5;stroke-dasharray:5.0,5.0;" x1="762" x2="762" y1="73.5938" y2="366.1875"/><rect fill="#E2E2F0" height="30.2969" rx="2.5" ry="2.5" style="stroke:#181818;stroke-width:0.5;" width="126" x="105" y="42.2969"/><text fill="#000000" font-family="sans-serif" font-size="14" lengthAdjust="spacing" textLength="112" x="112" y="62.292">microcontroller</text><rect fill="#E2E2F0" height="30.2969" rx="2.5" ry="2.5" style="stroke:#181818;stroke-width:0.5;" width="126" x="105" y="365.1875"/><text fill="#000000" font-family="sans-serif" font-size="14" lengthAdjust="spacing" textLength="112" x="112" y="385.1826">microcontroller</text><rect fill="#E2E2F0" height="30.2969" rx="2.5" ry="2.5" style="stroke:#181818;stroke-width:0.5;" width="82" x="441" y="42.2969"/><text fill="#000000" font-family="sans-serif" font-size="14" lengthAdjust="spacing" textLength="68" x="448" y="62.292">organizer</text><rect fill="#E2E2F0" height="30.2969" rx="2.5" ry="2.5" style="stroke:#181818;stroke-width:0.5;" width="82" x="441" y="365.1875"/><text fill="#000000" font-family="sans-serif" font-size="14" lengthAdjust="spacing" textLength="68" x="448" y="385.1826">organizer</text><rect fill="#E2E2F0" height="30.2969" rx="2.5" ry="2.5" style="stroke:#181818;stroke-width:0.5;" width="59" x="733" y="42.2969"/><text fill="#000000" font-family="sans-serif" font-size="14" lengthAdjust="spacing" textLength="45" x="740" y="62.292">server</text><rect fill="#E2E2F0" height="30.2969" rx="2.5" ry="2.5" style="stroke:#181818;stroke-width:0.5;" width="59" x="733" y="365.1875"/><text fill="#000000" font-family="sans-serif" font-size="14" lengthAdjust="spacing" textLength="45" x="740" y="385.1826">server</text><path d="M24,88.5938 L24,228.5938 L906,228.5938 L906,98.5938 L896,88.5938 L24,88.5938 " fill="#FEFFDD" style="stroke:#181818;stroke-width:0.5;"/><path d="M896,88.5938 L896,98.5938 L906,98.5938 L896,88.5938 " fill="#FEFFDD" style="stroke:#181818;stroke-width:0.5;"/><text fill="#000000" font-family="sans-serif" font-size="13" font-weight="bold" lengthAdjust="spacing" textLength="102" x="31" y="105.6606">Assumptions:</text><text fill="#000000" font-family="sans-serif" font-size="13" lengthAdjust="spacing" textLength="859" x="31" y="120.7935">The organizer and the microcontroller communicate over NFC. And the organizer and server communicate over a secure TLS channel.</text><text fill="#000000" font-family="sans-serif" font-size="13" lengthAdjust="spacing" textLength="4" x="31" y="135.9263">&#160;</text><text fill="#000000" font-family="sans-serif" font-size="13" lengthAdjust="spacing" textLength="375" x="31" y="151.0591">The Event Control Authorization (ECA) is signed and holds:</text><ellipse cx="36.5" cy="161.7578" fill="#000000" rx="2.5" ry="2.5" style="stroke:#000000;stroke-width:0.0;"/><text fill="#000000" font-family="sans-serif" font-size="13" lengthAdjust="spacing" textLength="13" x="43" y="166.1919">ID</text><text fill="#000000" font-family="sans-serif" font-size="10" lengthAdjust="spacing" textLength="31" x="56" y="169.8994">event</text><ellipse cx="36.5" cy="179.8906" fill="#000000" rx="2.5" ry="2.5" style="stroke:#000000;stroke-width:0.0;"/><text fill="#000000" font-family="sans-serif" font-size="13" lengthAdjust="spacing" textLength="13" x="43" y="184.3247">ID</text><text fill="#000000" font-family="sans-serif" font-size="10" lengthAdjust="spacing" textLength="83" x="56" y="188.0322">microcontroller</text><ellipse cx="36.5" cy="198.0234" fill="#000000" rx="2.5" ry="2.5" style="stroke:#000000;stroke-width:0.0;"/><text fill="#000000" font-family="sans-serif" font-size="13" lengthAdjust="spacing" textLength="13" x="43" y="202.4575">ID</text><text fill="#000000" font-family="sans-serif" font-size="10" lengthAdjust="spacing" textLength="52" x="56" y="206.165">organizer</text><ellipse cx="36.5" cy="216.1563" fill="#000000" rx="2.5" ry="2.5" style="stroke:#000000;stroke-width:0.0;"/><text fill="#000000" font-family="sans-serif" font-size="13" lengthAdjust="spacing" textLength="64" x="43" y="220.5903">expiration</text><polygon fill="#181818" points="750.5,250.7891,760.5,254.7891,750.5,258.7891,754.5,254.7891" style="stroke:#181818;stroke-width:1.0;"/><line style="stroke:#181818;stroke-width:1.0;" x1="482" x2="756.5" y1="254.7891" y2="254.7891"/><text fill="#000000" font-family="sans-serif" font-size="13" lengthAdjust="spacing" textLength="151" x="489" y="249.7231">initialise microcontroller</text><polygon fill="#181818" points="493,279.9219,483,283.9219,493,287.9219,489,283.9219" style="stroke:#181818;stroke-width:1.0;"/><line style="stroke:#181818;stroke-width:1.0;stroke-dasharray:2.0,2.0;" x1="487" x2="761.5" y1="283.9219" y2="283.9219"/><text fill="#000000" font-family="sans-serif" font-size="13" lengthAdjust="spacing" textLength="26" x="499" y="278.856">ECA</text><polygon fill="#181818" points="179,309.0547,169,313.0547,179,317.0547,175,313.0547" style="stroke:#181818;stroke-width:1.0;"/><line style="stroke:#181818;stroke-width:1.0;" x1="173" x2="481" y1="313.0547" y2="313.0547"/><text fill="#000000" font-family="sans-serif" font-size="13" lengthAdjust="spacing" textLength="26" x="185" y="307.9888">ECA</text><path d="M123,326.0547 L123,351.0547 L212,351.0547 L212,336.0547 L202,326.0547 L123,326.0547 " fill="#FEFFDD" style="stroke:#181818;stroke-width:0.5;"/><path d="M202,326.0547 L202,336.0547 L212,336.0547 L202,326.0547 " fill="#FEFFDD" style="stroke:#181818;stroke-width:0.5;"/><text fill="#000000" font-family="sans-serif" font-size="13" lengthAdjust="spacing" textLength="68" x="129" y="343.1216">Verify ECA</text><!--SRC=[PL5DQyCm3BthL-Yu3VgnQmY1q7Om6AEmihlgU8sOBGVRALj__PoFjajxa_MUz9wUmpTBGvuiRib7LjoGn2rL5Si1dvTBWCZHQDmSjKHKJg9t1gcDjVDyeiXEiF4kEkKC03JN9MXPUJTE6EsH0berOJX_8E7JWAN710pQ7mTag034HOsKbeO0-RueGsXjqpa8MRxO5x2hzV-LKc5CdLiRobdR2YjAorodyFwoccCvigVpeuUx4Kg8Qht6tTi7gff4j9b3Rs08QZK6LKw2UjYioaVaT14VH5UzHErC5J9umjTr7jfzeRlvVD6Lr-RD3RVmnVG5q3yD-ruKT1BfaWD8D9mLvwCoPE78P3ZSXGGmacQ9turbcAnVDbWrDleVwHD9F_kfFN_zzlspvXy0]--></g></svg>